<?xml version="1.0" encoding="iso-8859-1"?>
<!-- Uploaded to: SVG Repo, www.svgrepo.com, Generator: SVG Repo Mixer Tools -->
<!DOCTYPE svg PUBLIC "-//W3C//DTD SVG 1.1//EN" "http://www.w3.org/Graphics/SVG/1.1/DTD/svg11.dtd">
<svg height="800px" width="800px" version="1.1" id="Capa_1" xmlns="http://www.w3.org/2000/svg" xmlns:xlink="http://www.w3.org/1999/xlink" 
	 viewBox="0 0 426.668 426.668" xml:space="preserve">
<g>
	<g>
		<path style="fill:none;" d="M262.717,297.977c-15.844-3.152-32.422-4.787-49.381-4.787c-18.346,0-36.248,1.91-53.252,5.588
			c13.012,8.693,32.871,18.672,55.041,18.195C231.893,316.615,247.846,310.234,262.717,297.977z"/>
		<path style="fill:none;" d="M213.336,269.19c44.779,0,81.211-44.469,81.211-99.127c0-6.627,5.371-12,12-12c6.627,0,12,5.373,12,12
			c0,17.834-3.262,34.791-9.115,50.107l58.717-27.487c-3.918-15.552-13.627-48.858-31.678-81.688
			C304.732,53.27,263.303,24,213.334,24c-50.115,0-91.635,29.432-123.402,87.479c-17.936,32.77-27.535,65.75-31.418,81.201
			l58.723,27.49c-5.854-15.316-9.113-32.273-9.113-50.107c0-6.627,5.371-12,12-12c6.627,0,12,5.373,12,12
			C132.123,224.721,168.555,269.19,213.336,269.19z"/>
		<path style="fill:#73D0F4;" d="M340.277,330.092c-14.775-10.418-31.721-18.785-50.143-24.902
			c-22.273,23.223-47.393,35.26-74.709,35.781c-0.609,0.012-1.227,0.018-1.834,0.018c-39.637,0-71.408-24.465-82.271-33.984
			c-16.408,5.92-31.56,13.662-44.928,23.088c-28.34,19.982-45.568,45.4-49.498,72.576h71.227V368.94c0-6.627,5.373-12,12-12
			c6.629,0,12,5.373,12,12v33.728h162.424V368.94c0-6.627,5.373-12,12-12c6.629,0,12,5.373,12,12v33.728h71.229
			C385.844,375.492,368.615,350.074,340.277,330.092z"/>
		<path style="fill:#3D6889;" d="M354.107,310.478c-24.238-17.092-53.523-29.244-85.406-35.762
			c7.037-5.117,13.523-11.176,19.326-18.029l99.086-46.384c4.984-2.333,7.744-7.758,6.693-13.16
			c-0.389-1.987-9.777-49.242-36.016-97.187C322.002,34.564,272.051,0,213.334,0C154.619,0,104.666,34.564,68.877,99.957
			c-26.238,47.944-35.627,95.199-36.015,97.187c-1.051,5.402,1.708,10.827,6.692,13.16l99.088,46.384
			c5.803,6.853,12.289,12.912,19.326,18.029c-31.885,6.518-61.168,18.67-85.407,35.76C33.527,338,12.031,375.002,12.031,414.668
			c0,6.627,5.372,12,12,12h378.605c6.629,0,12-5.373,12-12C414.637,375.002,393.141,338,354.107,310.478z M318.545,402.668V368.94
			c0-6.627-5.371-12-12-12c-6.627,0-12,5.373-12,12v33.728H132.121V368.94c0-6.627-5.371-12-12-12c-6.627,0-12,5.373-12,12v33.728
			H36.895c3.93-27.176,21.158-52.594,49.498-72.576c13.367-9.426,28.52-17.168,44.928-23.088
			c10.863,9.52,42.635,33.984,82.271,33.984c0.607,0,1.225-0.006,1.834-0.018c27.316-0.522,52.436-12.559,74.709-35.781
			c18.422,6.117,35.367,14.484,50.143,24.902c28.338,19.982,45.566,45.4,49.496,72.576H318.545z M160.084,298.777
			c17.004-3.678,34.906-5.588,53.252-5.588c16.959,0,33.537,1.635,49.381,4.787c-14.871,12.258-30.824,18.639-47.592,18.996
			C192.955,317.449,173.096,307.471,160.084,298.777z M132.123,170.063c0-6.627-5.373-12-12-12c-6.629,0-12,5.373-12,12
			c0,17.834,3.26,34.791,9.113,50.107l-58.723-27.49c3.883-15.451,13.482-48.432,31.418-81.201
			C121.699,53.432,163.219,24,213.334,24c49.969,0,91.398,29.27,123.137,86.994c18.051,32.83,27.76,66.137,31.678,81.688
			l-58.717,27.487c5.853-15.316,9.115-32.273,9.115-50.107c0-6.627-5.373-12-12-12c-6.629,0-12,5.373-12,12
			c0,54.658-36.432,99.127-81.211,99.127C168.555,269.19,132.123,224.721,132.123,170.063z"/>
	</g>
</g>
</svg>